ExternalForces																		
version=1																		
nRows=132																		
nColumns=19																		
inDegrees=yes																		
endheader																		
time	assist_force_vx	assist_force_vy	assist_force_vz	assist_force_px	assist_force_py	assist_force_pz	chair_force_vx	chair_force_vy	chair_force_vz	chair_force_px	chair_force_py	chair_force_pz	assist_torque_x	assist_torque_y	assist_torque_z	chair_torque_x	chair_torque_y	chair_torque_z
0	0	0	0	-0.03	0.32	0	-16.18394126	264.7660241	0	0	0	0	0	0	0	0	0	0
0.00614898	0	0	0	-0.03	0.32	0	-12.7482823	262.5095033	0	0	0	0	0	0	0	0	0	0
0.00706382	0	0	0	-0.03	0.32	0	-13.6157546	265.056643	0	0	0	0	0	0	0	0	0	0
0.00889545	0	0	0	-0.03	0.32	0	-12.88042314	266.0565063	0	0	0	0	0	0	0	0	0	0
0.01564829	0	0	0	-0.03	0.32	0	-9.54256188	270.5183184	0	0	0	0	0	0	0	0	0	0
0.01654079	0	0	0	-0.03	0.32	0	-7.92956515	269.2356552	0	0	0	0	0	0	0	0	0	0
0.02100327	0	0	0	-0.03	0.32	0	-3.11316644	268.6988902	0	0	0	0	0	0	0	0	0	0
0.02952278	0	0	0	-0.03	0.32	0	4.65786055	270.6895545	0	0	0	0	0	0	0	0	0	0
0.0454192	0	0	0	-0.03	0.32	0	21.43341249	271.2681237	0	0	0	0	0	0	0	0	0	0
0.05752915	0	0	0	-0.03	0.32	0	32.17889878	275.5285879	0	0	0	0	0	0	0	0	0	0
0.064429	0	0	0	-0.03	0.32	0	39.24956405	276.5988449	0	0	0	0	0	0	0	0	0	0
0.07674626	0	0	0	-0.03	0.32	0	46.55299027	278.1185326	0	0	0	0	0	0	0	0	0	0
0.07798236	0	0	0	-0.03	0.32	0	52.55091161	278.6643814	0	0	0	0	0	0	0	0	0	0
0.07963838	0	0	0	-0.03	0.32	0	54.12929115	278.9085006	0	0	0	0	0	0	0	0	0	0
0.0879185	0	0	0	-0.03	0.32	0	62.15383071	280.117432	0	0	0	0	0	0	0	0	0	0
0.09679169	0	0	0	-0.03	0.32	0	71.63783734	281.4334248	0	0	0	0	0	0	0	0	0	0
0.10028891	0	0	0	-0.03	0.32	0	74.61732976	281.871064	0	0	0	0	0	0	0	0	0	0
0.10701765	0	0	0	-0.03	0.32	0	80.61909422	282.1674078	0	0	0	0	0	0	0	0	0	0
0.11831044	0	0	0	-0.03	0.32	0	94.22233174	281.2650748	0	0	0	0	0	0	0	0	0	0
0.11943972	0	0	0	-0.03	0.32	0	92.21858234	280.8466763	0	0	0	0	0	0	0	0	0	0
0.12264592	0	0	0	-0.03	0.32	0	92.94596275	280.0759413	0	0	0	0	0	0	0	0	0	0
0.12989836	0	0	0	-0.03	0.32	0	96.76416191	278.2193197	0	0	0	0	0	0	0	0	0	0
0.13389225	0	0	0	-0.03	0.32	0	99.74106323	277.1240735	0	0	0	0	0	0	0	0	0	0
0.14251825	0	0	0	-0.03	0.32	0	104.9265444	274.4020579	0	0	0	0	0	0	0	0	0	0
0.14967642	0	0	0	-0.03	0.32	0	108.354534	271.859497	0	0	0	0	0	0	0	0	0	0
0.15619692	0	0	0	-0.03	0.32	0	113.443527	269.5385494	0	0	0	0	0	0	0	0	0	0
0.15832918	0	0	0	-0.03	0.32	0	113.4893942	268.6451727	0	0	0	0	0	0	0	0	0	0
0.16571652	0	0	0	-0.03	0.32	0	114.440562	265.527681	0	0	0	0	0	0	0	0	0	0
0.16656395	0	0	0	-0.03	0.32	0	116.411861	265.2830517	0	0	0	0	0	0	0	0	0	0
0.16855527	0	0	0	-0.03	0.32	0	117.7480189	264.4891514	0	0	0	0	0	0	0	0	0	0
0.17587065	0	0	0	-0.03	0.32	0	123.0405106	261.5209621	0	0	0	0	0	0	0	0	0	0
0.1774584	0	0	0	-0.03	0.32	0	122.6399349	260.7661941	0	0	0	0	0	0	0	0	0	0
0.18433331	0	0	0	-0.03	0.32	0	121.1145541	257.4718843	0	0	0	0	0	0	0	0	0	0
0.18513561	0	0	0	-0.03	0.32	0	124.5295525	257.290441	0	0	0	0	0	0	0	0	0	0
0.186657	0	0	0	-0.03	0.32	0	125.6656212	256.6330544	0	0	0	0	0	0	0	0	0	0
0.19214221	0	0	0	-0.03	0.32	0	128.8568482	254.170376	0	0	0	0	0	0	0	0	0	0
0.19737187	0	0	0	-0.03	0.32	0	130.0616171	251.6666314	0	0	0	0	0	0	0	0	0	0
0.20377828	0	0	0	-0.03	0.32	0	136.4475933	248.6854225	0	0	0	0	0	0	0	0	0	0
0.20514378	0	0	0	-0.03	0.32	0	134.5183873	247.8164598	0	0	0	0	0	0	0	0	0	0
0.20897045	0	0	0	-0.03	0.32	0	134.3207308	245.5536856	0	0	0	0	0	0	0	0	0	0
0.21723279	0	0	0	-0.03	0.32	0	124.9075223	240.0679141	0	0	0	0	0	0	0	0	0	0
0.21814855	0	0	0	-0.03	0.32	0	137.4319872	240.0183669	0	0	0	0	0	0	0	0	0	0
0.2190643	0	0	0	-0.03	0.32	0	137.0319154	239.4248984	0	0	0	0	0	0	0	0	0	0
0.22364307	0	0	0	-0.03	0.32	0	136.7720397	236.5128369	0	0	0	0	0	0	0	0	0	0
0.23042326	0	0	0	-0.03	0.32	0	143.4308527	232.3863067	0	0	0	0	0	0	0	0	0	0
0.23152692	0	0	0	-0.03	0.32	0	139.7904534	231.5431618	0	0	0	0	0	0	0	0	0	0
0.23421704	0	0	0	-0.03	0.32	0	138.256195	229.7379886	0	0	0	0	0	0	0	0	0	0
0.23974576	0	0	0	-0.03	0.32	0	136.3975238	226.0536536	0	0	0	0	0	0	0	0	0	0
0.240559	0	0	0	-0.03	0.32	0	137.7362492	225.5535491	0	0	0	0	0	0	0	0	0	0
0.24260449	0	0	0	-0.03	0.32	0	138.1433733	224.2090746	0	0	0	0	0	0	0	0	0	0
0.24813909	0	0	0	-0.03	0.32	0	138.1609178	220.5155504	0	0	0	0	0	0	0	0	0	0
0.25197511	0	0	0	-0.03	0.32	0	138.3384201	217.937923	0	0	0	0	0	0	0	0	0	0
0.25784268	0	0	0	-0.03	0.32	0	134.6965735	213.9058564	0	0	0	0	0	0	0	0	0	0
0.25854949	0	0	0	-0.03	0.32	0	137.4665749	213.4635118	0	0	0	0	0	0	0	0	0	0
0.26008483	0	0	0	-0.03	0.32	0	138.0354151	212.4237594	0	0	0	0	0	0	0	0	0	0
0.26380527	0	0	0	-0.03	0.32	0	137.9861324	209.8760251	0	0	0	0	0	0	0	0	0	0
0.27050543	0	0	0	-0.03	0.32	0	133.5972668	205.2431378	0	0	0	0	0	0	0	0	0	0
0.27128367	0	0	0	-0.03	0.32	0	137.1257827	204.7172217	0	0	0	0	0	0	0	0	0	0
0.27269217	0	0	0	-0.03	0.32	0	137.5289357	203.7435768	0	0	0	0	0	0	0	0	0	0
0.27659429	0	0	0	-0.03	0.32	0	137.7103827	201.0356714	0	0	0	0	0	0	0	0	0	0
0.28128859	0	0	0	-0.03	0.32	0	135.3148486	197.779428	0	0	0	0	0	0	0	0	0	0
0.28272385	0	0	0	-0.03	0.32	0	136.9864887	196.7680139	0	0	0	0	0	0	0	0	0	0
0.2851649	0	0	0	-0.03	0.32	0	136.2714557	195.0714439	0	0	0	0	0	0	0	0	0	0
0.29737013	0	0	0	-0.03	0.32	0	130.5929092	186.6882371	0	0	0	0	0	0	0	0	0	0
0.30381552	0.0903102	0	0	-0.03	0.32	0	127.7301621	182.2345643	0	0	0	0	0	0	0	0	0	0
0.3102609	0.69252381	0.00142581	0	-0.03	0.32	0	123.1695412	177.0481411	0	0	0	0	0	0	0	0	0	0
0.31946152	2.50345665	0.22183406	0	-0.03	0.32	0	115.0428681	167.5925723	0	0	0	0	0	0	0	0	0	0
0.3256962	4.34854363	0.75867819	0	-0.03	0.32	0	108.2115644	158.8750535	0	0	0	0	0	0	0	0	0	0
0.33193088	6.6579549	1.82497861	0	-0.03	0.32	0	100.1478509	147.849516	0	0	0	0	0	0	0	0	0	0
0.33816556	9.40362531	3.39396552	0	-0.03	0.32	0	90.75656061	134.4900939	0	0	0	0	0	0	0	0	0	0
0.34864072	14.92690852	7.07883974	0	-0.03	0.32	0	73.65152243	109.3558976	0	0	0	0	0	0	0	0	0	0
0.36235543	23.7180228	13.70048292	0	-0.03	0.32	0	49.50789173	74.34992961	0	0	0	0	0	0	0	0	0	0
0.38205938	39.02557706	26.29882496	0	-0.03	0.32	0	14.8036369	22.82379352	0	0	0	0	0	0	0	0	0	0
0.39308225	48.77598519	34.71437195	0	-0.03	0.32	0	0	0	0	0	0	0	0	0	0	0	0	0
0.40023967	55.50025391	40.63380668	0	-0.03	0.32	0	0	0	0	0	0	0	0	0	0	0	0	0
0.41152082	64.80680965	48.9342006	0	-0.03	0.32	0	0	0	0	0	0	0	0	0	0	0	0	0
0.41383434	66.37039515	50.34355204	0	-0.03	0.32	0	0	0	0	0	0	0	0	0	0	0	0	0
0.42126266	70.65090331	54.24059652	0	-0.03	0.32	0	0	0	0	0	0	0	0	0	0	0	0	0
0.42869098	73.86556214	57.23278013	0	-0.03	0.32	0	0	0	0	0	0	0	0	0	0	0	0	0
0.43175332	74.89859711	58.21823636	0	-0.03	0.32	0	0	0	0	0	0	0	0	0	0	0	0	0
0.43816645	76.53953364	59.83844352	0	-0.03	0.32	0	0	0	0	0	0	0	0	0	0	0	0	0
0.44712433	77.71804211	61.15619142	0	-0.03	0.32	0	0	0	0	0	0	0	0	0	0	0	0	0
0.45129157	77.85188952	61.41740524	0	-0.03	0.32	0	0	0	0	0	0	0	0	0	0	0	0	0
0.45735127	77.60614414	61.42338295	0	-0.03	0.32	0	0	0	0	0	0	0	0	0	0	0	0	0
0.4717051	75.10435002	59.80780799	0	-0.03	0.32	0	0	0	0	0	0	0	0	0	0	0	0	0
0.47351916	74.60978318	59.45218704	0	-0.03	0.32	0	0	0	0	0	0	0	0	0	0	0	0	0
0.47757132	73.36997214	58.54314766	0	-0.03	0.32	0	0	0	0	0	0	0	0	0	0	0	0	0
0.48578553	70.31029111	56.23651549	0	-0.03	0.32	0	0	0	0	0	0	0	0	0	0	0	0	0
0.49399975	66.56689987	53.34944234	0	-0.03	0.32	0	0	0	0	0	0	0	0	0	0	0	0	0
0.50221396	62.22372557	49.94978078	0	-0.03	0.32	0	0	0	0	0	0	0	0	0	0	0	0	0
0.51042817	57.76614166	46.40082805	0	-0.03	0.32	0	0	0	0	0	0	0	0	0	0	0	0	0
0.51864239	53.38603543	42.88299984	0	-0.03	0.32	0	0	0	0	0	0	0	0	0	0	0	0	0
0.53449484	45.57224743	36.60651291	0	-0.03	0.32	0	0	0	0	0	0	0	0	0	0	0	0	0
0.54011446	43.0818905	34.60610064	0	-0.03	0.32	0	0	0	0	0	0	0	0	0	0	0	0	0
0.54733571	40.08051211	32.19520359	0	-0.03	0.32	0	0	0	0	0	0	0	0	0	0	0	0	0
0.56044668	35.15548126	28.23910716	0	-0.03	0.32	0	0	0	0	0	0	0	0	0	0	0	0	0
0.56909517	32.24283047	25.89948174	0	-0.03	0.32	0	0	0	0	0	0	0	0	0	0	0	0	0
0.57774365	29.57149439	23.75369556	0	-0.03	0.32	0	0	0	0	0	0	0	0	0	0	0	0	0
0.58639214	27.12147996	21.78568893	0	-0.03	0.32	0	0	0	0	0	0	0	0	0	0	0	0	0
0.59367567	25.21630114	20.25532875	0	-0.03	0.32	0	0	0	0	0	0	0	0	0	0	0	0	0
0.60095921	23.44495375	18.83247043	0	-0.03	0.32	0	0	0	0	0	0	0	0	0	0	0	0	0
0.60824275	21.79803664	17.5095624	0	-0.03	0.32	0	0	0	0	0	0	0	0	0	0	0	0	0
0.61790551	19.79030737	15.8968272	0	-0.03	0.32	0	0	0	0	0	0	0	0	0	0	0	0	0
0.62360224	18.69441801	15.01653951	0	-0.03	0.32	0	0	0	0	0	0	0	0	0	0	0	0	0
0.63049709	17.44889817	14.01605916	0	-0.03	0.32	0	0	0	0	0	0	0	0	0	0	0	0	0
0.64225637	15.51308259	12.46108959	0	-0.03	0.32	0	0	0	0	0	0	0	0	0	0	0	0	0
0.65401566	13.79203025	11.07863145	0	-0.03	0.32	0	0	0	0	0	0	0	0	0	0	0	0	0
0.65832902	13.20977737	10.61092909	0	-0.03	0.32	0	0	0	0	0	0	0	0	0	0	0	0	0
0.66623486	12.20564945	9.80435	0	-0.03	0.32	0	0	0	0	0	0	0	0	0	0	0	0	0
0.67295892	11.41191799	9.16677467	0	-0.03	0.32	0	0	0	0	0	0	0	0	0	0	0	0	0
0.67968299	10.66980277	8.57066076	0	-0.03	0.32	0	0	0	0	0	0	0	0	0	0	0	0	0
0.68800894	9.81741727	7.88597079	0	-0.03	0.32	0	0	0	0	0	0	0	0	0	0	0	0	0
0.69633489	9.03312684	7.25597909	0	-0.03	0.32	0	0	0	0	0	0	0	0	0	0	0	0	0
0.70466084	8.31149154	6.67631595	0	-0.03	0.32	0	0	0	0	0	0	0	0	0	0	0	0	0
0.71645316	7.38695721	5.93367147	0	-0.03	0.32	0	0	0	0	0	0	0	0	0	0	0	0	0
0.72087222	7.06763079	5.67716828	0	-0.03	0.32	0	0	0	0	0	0	0	0	0	0	0	0	0
0.72842329	6.55360098	5.26426701	0	-0.03	0.32	0	0	0	0	0	0	0	0	0	0	0	0	0
0.73554992	6.10280424	4.90215854	0	-0.03	0.32	0	0	0	0	0	0	0	0	0	0	0	0	0
0.74192149	5.72608823	4.59955641	0	-0.03	0.32	0	0	0	0	0	0	0	0	0	0	0	0	0
0.74829307	5.37262629	4.31563341	0	-0.03	0.32	0	0	0	0	0	0	0	0	0	0	0	0	0
0.75696462	4.92636475	3.9571679	0	-0.03	0.32	0	0	0	0	0	0	0	0	0	0	0	0	0
0.76563617	4.51717062	3.62847729	0	-0.03	0.32	0	0	0	0	0	0	0	0	0	0	0	0	0
0.77034501	4.30939485	3.46157864	0	-0.03	0.32	0	0	0	0	0	0	0	0	0	0	0	0	0
0.77505384	4.11117611	3.3023568	0	-0.03	0.32	0	0	0	0	0	0	0	0	0	0	0	0	0
0.78337672	3.78286012	3.03863262	0	-0.03	0.32	0	0	0	0	0	0	0	0	0	0	0	0	0
0.7867937	3.65578404	2.93655708	0	-0.03	0.32	0	0	0	0	0	0	0	0	0	0	0	0	0
0.79126062	3.4960795	2.80826996	0	-0.03	0.32	0	0	0	0	0	0	0	0	0	0	0	0	0
0.79810219	3.26498761	2.62256531	0	-0.03	0.32	0	0	0	0	0	0	0	0	0	0	0	0	0
0.80175263	3.14805336	2.52855635	0	-0.03	0.32	0	0	0	0	0	0	0	0	0	0	0	0	0
0.80540307	3.0352784	2.43791726	0	-0.03	0.32	0	0	0	0	0	0	0	0	0	0	0	0	0
0.81009031	2.89632225	2.32628305	0	-0.03	0.32	0	0	0	0	0	0	0	0	0	0	0	0	0
0.81954579	2.63500998	2.11640091	0	-0.03	0.32	0	0	0	0	0	0	0	0	0	0	0	0	0
